Coordinates
version=1
nRows=13
nColumns=40
inDegrees=yes

Units are S.I. units (second, meters, Newtons, ...)
Angles are in degrees.

endheader
time	pelvis_tilt	pelvis_list	pelvis_rotation	pelvis_tx	pelvis_ty	pelvis_tz	hip_flexion_r	hip_adduction_r	hip_rotation_r	knee_angle_r	knee_angle_r_beta	ankle_angle_r	subtalar_angle_r	mtp_angle_r	hip_flexion_l	hip_adduction_l	hip_rotation_l	knee_angle_l	knee_angle_l_beta	ankle_angle_l	subtalar_angle_l	mtp_angle_l	lumbar_extension	lumbar_bending	lumbar_rotation	arm_flex_r	arm_add_r	arm_rot_r	elbow_flex_r	pro_sup_r	wrist_flex_r	wrist_dev_r	arm_flex_l	arm_add_l	arm_rot_l	elbow_flex_l	pro_sup_l	wrist_flex_l	wrist_dev_l
     12.31000000	     -1.84465176	     -3.88162904	     -0.82202954	      0.96753516	      0.91593448	      0.39256777	     21.77271491	     -6.84190675	     -0.99912730	     63.62610055	     63.62610055	     -1.94187084	    -13.81977987	    -10.51711976	     19.27754239	     -0.44245565	     -0.57666536	     33.60795978	     33.60795978	     19.07512320	    -18.03843592	      8.40036895	    -10.40492223	      6.41301606	      3.95288421	     22.16729618	    -12.87534924	    -12.47278608	     29.65437402	     46.17997961	      0.00000000	      0.00000000	     15.16097402	    -11.65219511	     18.62568231	     32.53248682	     45.35401155	      0.00000000	      0.00000000
     12.33214286	     -1.69833288	     -3.97826822	     -1.42394632	      0.96783079	      0.91467867	      0.39044398	     23.08218294	     -6.64329171	     -0.62032838	     65.18865074	     65.18865074	     -2.21774498	    -15.29849638	     -9.60720537	     19.04314824	     -0.47739179	     -0.96078536	     34.24311395	     34.24311395	     19.79220351	    -18.20198994	      8.52190363	    -10.48415699	      6.67792712	      3.60461709	     18.26861074	    -12.78298128	    -12.64572294	     27.95259895	     46.23665470	      0.00000000	      0.00000000	     17.04334437	    -12.44701961	     18.06874658	     33.93156862	     45.45425858	      0.00000000	      0.00000000
     12.35428571	     -1.50857729	     -4.08070016	     -2.04794526	      0.96808088	      0.91373249	      0.38834599	     24.30606828	     -6.47083922	     -0.37289209	     66.43692700	     66.43692700	     -1.95841951	    -16.31787437	     -7.75291014	     18.67750253	     -0.51126867	     -1.37140866	     34.75109542	     34.75109542	     20.56604099	    -18.31606020	      8.87178689	    -10.68125940	      6.95274735	      3.44105495	     14.21001424	    -12.82378442	    -12.92809144	     26.16746354	     46.30732239	      0.00000000	      0.00000000	     19.07387910	    -13.23090290	     17.30002187	     35.61843208	     45.58467393	      0.00000000	      0.00000000
     12.37642857	     -1.37073443	     -4.15025298	     -2.71789305	      0.96821758	      0.91314880	      0.38640369	     25.51097882	     -6.33334818	     -0.20677796	     67.20870257	     67.20870257	     -1.20928836	    -16.98103536	     -5.25293943	     18.25730408	     -0.52324936	     -1.83444412	     35.05802336	     35.05802336	     21.27790577	    -18.38844758	      9.33664213	    -10.88112756	      7.17784773	      3.29965737	     10.19948381	    -12.86376346	    -13.32159908	     24.46139522	     46.38845194	      0.00000000	      0.00000000	     21.13329257	    -14.04439994	     16.30780717	     37.32033833	     45.74071175	      0.00000000	      0.00000000
     12.39857143	     -1.26610261	     -4.21707571	     -3.34760134	      0.96824234	      0.91306875	      0.38465429	     26.48790174	     -6.32965043	     -0.34209255	     67.15086683	     67.15086683	     -0.67990636	    -17.53353702	     -4.93366189	     17.70251248	     -0.53349373	     -2.30543924	     34.99786604	     34.99786604	     21.64921755	    -18.48696427	      9.36299569	    -11.03221920	      7.47949986	      2.08403042	      7.02468667	    -12.68300615	    -13.44941771	     23.25944084	     46.42341461	      0.00000000	      0.00000000	     22.85834600	    -15.65205626	     15.75558229	     37.80443962	     45.82482801	      0.00000000	      0.00000000
     12.42071429	     -1.33431367	     -4.27949483	     -4.14503930	      0.96788823	      0.91329942	      0.38356445	     27.77909250	     -5.96630070	     -0.14018025	     66.85923775	     66.85923775	      1.89032964	    -17.40650128	      1.59760367	     17.29369184	     -0.63174719	     -2.95559576	     34.85781183	     34.85781183	     22.27639880	    -18.39533164	     10.29675033	    -11.18213103	      7.63566508	      2.57635212	      2.83266254	    -12.78699087	    -14.86683592	     22.68504382	     46.58661886	      0.00000000	      0.00000000	     24.69951964	    -15.84492142	     12.48741675	     40.62112031	     46.23396938	      0.00000000	      0.00000000
     12.44285714	     -1.40962874	     -4.31936278	     -4.90150170	      0.96744498	      0.91416285	      0.38272189	     28.60809862	     -5.82889928	     -0.29870615	     65.30626374	     65.30626374	      2.81051951	    -17.60482767	      1.92212007	     16.67114041	     -0.71583723	     -3.64104105	     34.24379146	     34.24379146	     22.28425208	    -18.36255845	     10.02297882	    -11.27551651	      7.77021753	      2.34190918	     -0.50204399	    -12.73539294	    -15.73096817	     21.92559193	     46.71848876	      0.00000000	      0.00000000	     26.55254135	    -16.51329310	     10.12625344	     41.84251235	     46.50130428	      0.00000000	      0.00000000
     12.46500000	     -1.59104409	     -4.37160882	     -5.71164371	      0.96670287	      0.91543647	      0.38240651	     29.30339213	     -5.60661647	     -0.50425363	     62.89678699	     62.89678699	      3.62694638	    -17.58574847	      1.75889596	     16.08395240	     -0.85813131	     -4.39985006	     33.44739771	     33.44739771	     22.27349580	    -18.27900222	     10.07187399	    -11.28023353	      7.87903325	      2.21190032	     -3.44178906	    -12.78207896	    -15.90224702	     21.03982226	     46.75515593	      0.00000000	      0.00000000	     28.41785459	    -17.53811260	      9.23219208	     43.05471919	     46.61926944	      0.00000000	      0.00000000
     12.48714286	     -2.01751386	     -4.44240864	     -6.48160501	      0.96560504	      0.91669008	      0.38257891	     30.03906395	     -5.28768774	     -0.79107524	     59.78954544	     59.78954544	      4.44108857	    -17.25061505	      1.69271817	     15.76202660	     -1.07258216	     -5.11315451	     32.59197031	     32.59197031	     22.20095711	    -18.12081545	     10.20609837	    -11.00569437	      7.96600023	      1.60814085	     -5.84784675	    -12.73003693	    -16.01351081	     20.36491231	     46.77369480	      0.00000000	      0.00000000	     30.07117147	    -18.96449688	      8.57924549	     43.75461753	     46.70674101	      0.00000000	      0.00000000
     12.50928571	     -2.19542841	     -4.52116273	     -7.32454353	      0.96462881	      0.91860755	      0.38313840	     30.06426946	     -4.98354167	     -1.13141886	     55.65208234	     55.65208234	      4.12842218	    -16.85132890	     -1.56586142	     14.91612406	     -1.32054460	     -6.07874210	     31.26871675	     31.26871675	     21.45640773	    -17.95889786	      8.76228039	    -11.20658761	      8.03874851	      1.84626734	     -9.57117118	    -12.61865844	    -16.44610088	     23.11164937	     46.67171467	      0.00000000	      0.00000000	     31.15855307	    -19.18239528	      4.50238135	     46.97652269	     47.11530156	      0.00000000	      0.00000000
     12.53142857	     -2.56209412	     -4.58946939	     -8.12894320	      0.96335948	      0.92029508	      0.38408034	     30.07049926	     -4.60775331	     -1.49440748	     51.00805486	     51.00805486	      3.84204485	    -15.93362588	     -3.91952012	     14.34254234	     -1.57310270	     -6.95643689	     30.04040000	     30.04040000	     20.96344175	    -17.72152097	      8.01754379	    -11.11700426	      8.05135647	      1.77140123	    -12.18482244	    -12.52470593	    -15.82570566	     24.02424947	     46.56971254	      0.00000000	      0.00000000	     32.57641915	    -19.76557995	      2.07122796	     48.62889161	     47.32597877	      0.00000000	      0.00000000
     12.55357143	     -3.03885526	     -4.65929693	     -8.89437996	      0.96193643	      0.92174141	      0.38538657	     30.04579634	     -4.14842498	     -1.84509481	     46.15592665	     46.15592665	      4.07055346	    -14.18990892	     -3.70018415	     13.96473398	     -1.84793425	     -7.74035367	     28.96436097	     28.96436097	     20.82561100	    -17.41332827	      8.17521456	    -10.85505101	      8.07558163	      1.58773151	    -13.92719891	    -12.34529495	    -15.78918633	     23.64766773	     46.56679011	      0.00000000	      0.00000000	     34.11299827	    -20.79319328	      1.51625415	     49.51169543	     47.39761170	      0.00000000	      0.00000000
     12.57571429	     -3.28804984	     -4.60608300	     -9.66829873	      0.96079927	      0.92309029	      0.38685664	     29.57579666	     -4.00692569	     -2.50522157	     41.08706000	     41.08706000	      3.96918854	    -11.25523412	     -4.35247954	     13.28290534	     -1.97500178	     -8.71299714	     27.77755791	     27.77755791	     20.41674819	    -17.02822853	      7.41018284	    -10.90229790	      7.88311570	      1.91764261	    -16.30877649	    -12.06516308	    -15.53163247	     25.01242703	     46.45988555	      0.00000000	      0.00000000	     35.35589994	    -21.15322944	     -0.45300986	     52.07299583	     47.59229313	      0.00000000	      0.00000000
